<?xml version="1.0" standalone="no"?>
<!DOCTYPE svg PUBLIC "-//W3C//DTD SVG 20010904//EN"
 "http://www.w3.org/TR/2001/REC-SVG-20010904/DTD/svg10.dtd">
<svg version="1.0" xmlns="http://www.w3.org/2000/svg"
 width="308.000000pt" height="308.000000pt" viewBox="0 0 308.000000 308.000000"
 preserveAspectRatio="xMidYMid meet">
<metadata>
Created by potrace 1.11, written by Peter Selinger 2001-2013
</metadata>
<g transform="translate(0.000000,308.000000) scale(0.100000,-0.100000)"
fill="#000000" stroke="none">
<path d="M1563 2910 c5 -19 0 -20 -74 -20 -63 0 -79 -3 -79 -15 0 -11 19 -15
92 -17 76 -2 93 -6 96 -19 2 -13 -11 -17 -75 -23 -104 -9 -228 -39 -314 -76
-180 -76 -455 -296 -552 -440 -43 -64 -38 -83 6 -25 55 71 210 218 302 288
112 84 283 170 395 198 180 44 467 35 686 -22 188 -49 412 -145 511 -219 51
-39 253 -282 326 -393 79 -120 106 -208 138 -463 28 -228 23 -303 -35 -509
-58 -202 -86 -268 -159 -378 -69 -103 -257 -302 -360 -381 -86 -66 -257 -149
-347 -170 -172 -39 -452 -45 -623 -12 -204 40 -458 152 -577 256 -21 18 5 6
64 -31 291 -181 590 -251 926 -219 303 29 487 121 710 356 173 184 238 291
305 508 69 224 82 315 67 468 -28 280 -61 414 -133 535 -55 91 -280 364 -334
405 -27 21 -95 61 -150 88 -342 168 -753 221 -1052 134 -164 -47 -346 -161
-512 -319 -81 -78 -160 -180 -148 -192 4 -3 8 -4 10 -2 133 192 413 408 611
474 307 101 731 49 1092 -133 117 -59 153 -90 257 -214 240 -289 275 -366 313
-683 24 -208 17 -304 -40 -496 -25 -86 -55 -178 -66 -204 -53 -124 -216 -328
-364 -455 -90 -77 -171 -128 -273 -170 -134 -56 -193 -64 -448 -65 -210 0
-238 2 -320 23 -132 35 -282 96 -380 155 -89 54 -310 244 -360 310 -34 44 -45
46 -45 10 0 -22 -2 -25 -10 -13 -17 26 -11 47 25 90 27 32 33 46 24 56 -11 13
-39 9 -39 -7 0 -18 -3 -25 -23 -54 l-21 -29 -13 42 c-15 54 -10 67 44 120 39
36 52 42 88 42 29 0 45 5 49 15 7 21 -17 29 -43 16 -40 -22 -55 -7 -25 24 13
12 26 15 55 10 36 -6 39 -5 39 15 0 20 -4 22 -32 16 -31 -6 -32 -5 -16 10 10
11 31 17 52 16 37 -1 55 13 38 30 -7 7 -25 5 -57 -6 l-47 -16 6 35 c6 32 5 35
-17 35 -33 0 -37 -7 -24 -40 9 -25 7 -38 -18 -89 -15 -33 -32 -58 -36 -55 -4
2 -10 18 -14 35 -5 22 -2 36 10 49 22 25 13 50 -19 50 -28 0 -36 -21 -25 -60
30 -103 30 -101 -4 -141 -18 -20 -36 -38 -40 -38 -5 -1 -24 34 -44 77 -34 71
-37 84 -37 172 -1 83 2 100 22 133 26 41 61 49 96 22 26 -20 92 -20 100 0 9
25 -4 44 -40 57 -53 19 -16 33 47 18 92 -22 135 15 60 52 l-35 17 56 25 c31
14 63 35 72 48 15 21 15 24 1 34 -25 19 -48 7 -111 -57 -32 -32 -61 -59 -65
-59 -4 0 -3 17 2 38 15 63 11 92 -10 92 -26 0 -44 -50 -39 -109 5 -45 3 -50
-24 -66 -16 -9 -32 -14 -35 -11 -3 3 0 25 6 50 15 61 14 66 -9 66 -24 0 -39
-33 -47 -105 -4 -34 -14 -59 -30 -76 -13 -14 -28 -39 -33 -55 -8 -27 -8 -26
-9 14 -1 25 16 92 39 163 22 67 40 125 40 131 0 5 14 42 30 82 30 72 31 72 81
85 56 15 106 51 95 69 -10 16 -39 15 -82 -3 -34 -14 -36 -14 -29 3 4 9 18 44
30 77 l23 60 60 3 c63 3 89 19 78 48 -5 12 -17 15 -56 12 -28 -1 -50 -2 -50 0
0 18 47 85 74 106 20 15 36 32 36 39 0 7 11 29 25 49 30 44 32 68 6 68 -25 0
-78 -64 -87 -104 -3 -17 -16 -44 -27 -59 -11 -16 -28 -45 -38 -65 l-18 -37 -1
30 c0 35 -24 75 -45 75 -8 0 -20 -9 -28 -21 -17 -24 -10 -61 22 -113 20 -31
20 -34 4 -84 -18 -57 -33 -68 -33 -24 0 35 -14 57 -30 47 -9 -6 -11 -25 -5
-74 10 -92 11 -86 -28 -186 -27 -67 -37 -85 -42 -70 -3 11 -22 52 -41 92 -39
81 -42 103 -15 103 29 0 88 28 94 45 16 40 -29 60 -69 30 -27 -20 -35 -18 -30
8 3 12 7 34 10 48 4 20 15 29 48 38 24 7 49 18 55 23 39 32 -14 82 -62 60 -25
-12 -25 -12 -19 31 3 23 17 77 30 120 27 87 29 103 14 112 -37 23 -102 -141
-80 -200 6 -15 7 -45 4 -67 l-7 -40 -13 30 c-14 34 -93 97 -106 84 -18 -18 14
-85 64 -132 49 -47 50 -49 43 -90 l-7 -42 -27 29 c-36 40 -78 66 -91 58 -33
-20 7 -94 68 -123 29 -14 37 -25 46 -62 7 -26 21 -62 33 -80 12 -19 27 -63 34
-97 12 -59 11 -66 -15 -147 -26 -78 -28 -94 -23 -188 3 -57 8 -114 11 -128 6
-23 5 -23 -5 2 -6 15 -32 43 -58 62 -46 32 -49 37 -55 93 -4 32 -9 69 -11 83
-2 14 -4 28 -4 33 -1 4 -12 7 -26 7 -37 0 -44 -29 -13 -54 17 -14 27 -34 31
-63 3 -24 2 -43 -2 -43 -11 0 -37 31 -44 53 -8 21 -45 23 -53 2 -8 -19 13 -45
36 -45 10 0 23 -6 29 -14 33 -40 -167 47 -207 90 -26 27 -35 29 -50 11 -15
-18 -5 -28 58 -58 l55 -26 -32 -17 c-18 -9 -41 -16 -51 -16 -27 0 -35 -26 -15
-45 15 -15 18 -14 38 11 24 30 91 46 140 32 17 -5 52 -13 78 -18 27 -5 57 -16
68 -24 19 -13 14 -14 -48 -20 -37 -3 -79 -4 -93 -3 -19 1 -26 -3 -28 -20 -4
-27 -6 -27 99 -7 106 20 121 14 159 -69 l28 -62 -23 -3 c-21 -3 -24 -9 -32
-95 l-8 -92 -51 76 c-28 42 -54 89 -58 103 -5 21 -12 27 -29 24 -33 -5 -35
-45 -2 -60 22 -10 65 -64 65 -81 0 -8 -73 4 -85 14 -20 19 -45 10 -45 -16 0
-27 25 -44 41 -28 5 5 32 7 60 3 38 -5 56 -13 72 -33 12 -15 52 -42 90 -61
l67 -33 -25 -17 c-13 -9 -39 -15 -57 -14 -30 3 -33 1 -33 -26 0 -16 7 -33 17
-39 13 -9 21 -6 37 15 11 14 42 35 69 46 49 21 50 21 88 3 22 -11 91 -68 155
-128 222 -208 502 -339 801 -374 125 -14 412 -6 513 15 204 43 360 132 535
306 199 197 287 328 351 523 73 221 93 318 93 447 -1 192 -55 493 -106 593
-67 133 -314 441 -404 503 -73 51 -181 106 -294 149 -99 38 -317 95 -362 95
-19 0 -28 4 -25 13 5 14 68 12 77 -3 3 -5 24 -6 47 -3 46 6 58 26 39 65 -12
24 -66 39 -66 19 0 -6 -11 -11 -25 -11 -16 0 -25 6 -25 15 0 20 -29 19 -37 -1
-5 -15 -21 -16 -142 -10 -117 6 -137 10 -149 27 -18 26 -46 25 -39 -1z m234
-68 c34 -5 50 -11 45 -18 -11 -17 -212 -5 -212 12 0 15 70 18 167 6z m-966
-609 c-15 -29 -40 -59 -41 -50 0 10 39 67 46 67 3 0 0 -8 -5 -17z m-362 -42
c-7 -23 -14 -39 -16 -37 -3 2 1 23 8 45 7 23 14 39 16 37 3 -2 -1 -23 -8 -45z
m181 -127 c6 -14 10 -35 10 -47 0 -19 -2 -20 -15 -7 -19 20 -32 80 -16 80 6 0
16 -12 21 -26z m-283 -16 c11 -13 23 -32 27 -42 6 -16 4 -17 -9 -6 -24 20 -58
70 -47 70 4 0 18 -10 29 -22z m163 -38 c0 -10 -41 -30 -62 -30 -6 0 -3 9 7 20
19 21 55 27 55 10z m255 -20 c-3 -5 -23 -10 -43 -9 -33 1 -34 2 -12 9 36 12
62 12 55 0z m-436 -115 c37 -42 39 -50 9 -34 -34 17 -58 40 -58 56 0 22 16 15
49 -22z m161 -30 c0 -2 -13 -11 -30 -20 -33 -17 -40 -10 -12 11 17 13 42 19
42 9z m157 -61 c-16 -9 -31 -13 -34 -10 -3 3 5 10 18 15 37 15 47 12 16 -5z
m-3 -273 c-4 -17 -9 -30 -11 -27 -3 2 -2 19 2 36 9 41 17 33 9 -9z m157 19
c-13 -11 -28 -20 -35 -20 -6 1 0 10 13 20 13 11 28 20 35 20 6 -1 0 -10 -13
-20z m-56 -111 c11 -16 1 -20 -33 -13 -18 4 -29 10 -26 15 7 13 51 11 59 -2z
m-109 -73 c10 -8 16 -18 12 -21 -9 -10 -48 1 -73 19 -19 15 -19 15 11 16 16 0
39 -6 50 -14z m-150 -419 c9 -18 24 -41 34 -52 9 -11 20 -36 24 -55 3 -19 17
-51 31 -71 l24 -37 -62 14 c-74 18 -104 36 -118 72 -14 37 -2 113 22 135 11
10 16 23 13 29 -4 7 -2 8 5 4 6 -4 18 -22 27 -39z m259 -308 l60 -63 -65 59
c-98 88 -99 89 -75 77 11 -6 47 -39 80 -73z"/>
</g>
</svg>
