<svg width="512" height="512" xmlns="http://www.w3.org/2000/svg">

 <g>
  <title>background</title>
  <rect fill="none" id="canvas_background" height="402" width="582" y="-1" x="-1"/>
 </g>
 <g>
  <title>Layer 1</title>
  <path id="svg_1" fill="#b69e92" d="m256,49.471c67.266,0 75.233,0.257 101.8,1.469c24.562,1.121 37.9,5.224 46.778,8.674a78.052,78.052 0 0 1 28.966,18.845a78.052,78.052 0 0 1 18.845,28.966c3.45,8.877 7.554,22.216 8.674,46.778c1.212,26.565 1.469,34.532 1.469,101.8s-0.257,75.233 -1.469,101.8c-1.121,24.562 -5.225,37.9 -8.674,46.778a83.427,83.427 0 0 1 -47.811,47.811c-8.877,3.45 -22.216,7.554 -46.778,8.674c-26.56,1.212 -34.527,1.469 -101.8,1.469s-75.237,-0.257 -101.8,-1.469c-24.562,-1.121 -37.9,-5.225 -46.778,-8.674a78.051,78.051 0 0 1 -28.966,-18.845a78.053,78.053 0 0 1 -18.845,-28.966c-3.45,-8.877 -7.554,-22.216 -8.674,-46.778c-1.212,-26.564 -1.469,-34.532 -1.469,-101.8s0.257,-75.233 1.469,-101.8c1.121,-24.562 5.224,-37.9 8.674,-46.778a78.052,78.052 0 0 1 18.847,-28.967a78.053,78.053 0 0 1 28.966,-18.845c8.877,-3.45 22.216,-7.554 46.778,-8.674c26.565,-1.212 34.532,-1.469 101.8,-1.469m0,-45.391c-68.418,0 -77,0.29 -103.866,1.516c-26.815,1.224 -45.127,5.482 -61.151,11.71a123.488,123.488 0 0 0 -44.62,29.057a123.488,123.488 0 0 0 -29.065,44.62c-6.223,16.025 -10.481,34.337 -11.7,61.152c-1.231,26.866 -1.521,35.448 -1.521,103.866s0.29,77 1.521,103.866c1.224,26.815 5.482,45.127 11.71,61.151a123.489,123.489 0 0 0 29.057,44.62a123.486,123.486 0 0 0 44.62,29.057c16.025,6.228 34.337,10.486 61.151,11.71c26.87,1.226 35.449,1.516 103.866,1.516s77,-0.29 103.866,-1.516c26.815,-1.224 45.127,-5.482 61.151,-11.71a128.817,128.817 0 0 0 73.677,-73.677c6.228,-16.025 10.486,-34.337 11.71,-61.151c1.226,-26.87 1.516,-35.449 1.516,-103.866s-0.29,-77 -1.516,-103.866c-1.224,-26.815 -5.482,-45.127 -11.71,-61.151a123.486,123.486 0 0 0 -29.057,-44.62a123.487,123.487 0 0 0 -44.623,-29.063c-16.025,-6.223 -34.337,-10.481 -61.152,-11.7c-26.866,-1.231 -35.448,-1.521 -103.866,-1.521l0,0l0.002,0z"/>
  <path id="svg_2" fill="#b69e92" d="m256,126.635a129.365,129.365 0 1 0 129.365,129.365a129.365,129.365 0 0 0 -129.365,-129.365zm0,213.338a83.973,83.973 0 1 1 83.974,-83.973a83.974,83.974 0 0 1 -83.974,83.973z"/>
  <circle id="svg_3" fill="#b69e92" r="30.23" cy="121.524" cx="390.476"/>
 </g>
</svg>