<?xml version="1.0" standalone="no"?>
<!DOCTYPE svg PUBLIC "-//W3C//DTD SVG 20010904//EN"
 "http://www.w3.org/TR/2001/REC-SVG-20010904/DTD/svg10.dtd">
<svg version="1.0" xmlns="http://www.w3.org/2000/svg"
 width="229.000000pt" height="229.000000pt" viewBox="0 0 229.000000 229.000000"
 preserveAspectRatio="xMidYMid meet">
<metadata>
Created by potrace 1.11, written by Peter Selinger 2001-2013
</metadata>
<g transform="translate(0.000000,229.000000) scale(0.100000,-0.100000)"
fill="#000000" stroke="none">
<path d="M5 2112 c-13 -13 -2 -20 36 -20 22 -1 52 -8 65 -17 l24 -15 0 -428
c0 -327 -3 -432 -12 -445 -8 -11 -33 -20 -65 -24 -50 -5 -74 -22 -35 -24 116
-5 447 3 487 12 168 39 288 161 328 334 55 237 -36 479 -214 574 -91 48 -129
54 -376 56 -128 1 -235 -1 -238 -3z m561 -73 c100 -69 146 -203 146 -424 -1
-317 -105 -454 -344 -451 -122 2 -113 -36 -115 456 -1 401 0 421 18 444 16 20
30 26 72 28 79 5 172 -17 223 -53z"/>
<path d="M1080 1145 c-365 -365 -661 -668 -657 -672 8 -7 1337 1315 1337 1329
0 5 -3 8 -8 8 -4 0 -306 -299 -672 -665z"/>
<path d="M1538 1162 c-54 -1 -98 -7 -98 -12 0 -6 6 -10 13 -11 54 -2 81 -9 96
-23 14 -15 16 -61 17 -434 1 -272 -2 -424 -9 -437 -15 -29 -27 -35 -75 -35
-31 0 -42 -4 -39 -12 3 -10 58 -13 233 -12 205 0 236 3 300 22 138 42 247 154
284 292 21 77 23 92 22 185 0 162 -64 300 -178 386 -112 85 -214 101 -566 91z
m427 -55 c122 -62 174 -180 181 -407 7 -257 -54 -410 -185 -468 -25 -11 -68
-16 -139 -16 -91 -1 -105 1 -118 18 -12 16 -14 92 -14 440 0 232 4 426 8 433
14 23 57 31 137 28 63 -2 92 -8 130 -28z"/>
</g>
</svg>
